<svg xmlns="http://www.w3.org/2000/svg" viewBox="0 0 128 128" role="img" aria-label="OgaProp"><circle cx="58" cy="58" r="48" fill="#2E3746"/><path d="M17 68 58 25l42 43v25L58 113 17 93Z" fill="#C9A227"/><path d="M17 68 58 25l42 43-9 9-33-34-32 34Z" fill="#fff"/><path d="M30 53V39h12v2L58 25l42 43-9 9-33-34-32 34-9-9Z" fill="#fff"/><path d="M49 66a9 9 0 0 1 18 0v19H49Z" fill="#fff"/><path d="M58 57v28M49 70h18" stroke="#C9A227" stroke-width="4"/><path d="m88 88 28 20-20-31Z" fill="#C9A227"/></svg>